<svg width="60" height="57" viewBox="0 0 60 57" fill="none" xmlns="http://www.w3.org/2000/svg">
<path d="M14.8699 53.2419C9.31803 50.2638 5.20717 45.8863 2.55753 40.2056C1.177 37.2459 0.265429 34.1049 0.214058 30.5806C0.149481 29.719 0.0817377 29.0599 0.013996 28.4008C0.00598115 28.1437 -0.00203545 27.8865 0.00294092 27.5069C0.0170633 27.3312 0.0156688 27.278 0.011746 27.2249C0.00103557 27.1198 -0.00967486 27.0148 0.0724761 26.8305C0.671616 26.914 1.17789 27.0767 1.82153 27.2835C1.88848 27.0423 1.99569 26.6561 2.1633 26.2695C2.26397 26.2691 2.30424 26.2688 2.42821 26.2685C2.67934 26.2674 2.84678 26.2664 3.01421 26.2655C2.94352 29.4559 3.2233 32.6234 4.53497 35.5497C5.57256 37.8645 6.93584 40.0332 8.21776 42.3821C8.41205 42.6158 8.54308 42.7342 8.70623 42.9264C10.9778 45.7393 13.6922 47.8746 16.9395 49.442C17.167 49.5244 17.3372 49.5698 17.5074 49.6152C18.4672 49.9961 19.427 50.377 20.5491 50.8342C21.0835 51.0225 21.4496 51.1632 21.8287 51.2418C24.3028 51.7543 26.7779 52.2785 29.372 51.7996C29.418 51.8061 29.511 51.8041 29.511 51.8041C30.403 51.672 31.295 51.5399 32.2985 51.405C32.4889 51.4144 32.5677 51.4266 32.7432 51.4283C34.4965 50.9183 36.1532 50.4189 37.8313 49.9974C37.9986 50.4085 38.1446 50.7417 38.2887 51.0707C38.9572 50.5879 39.5785 50.2557 40.0348 49.7688C40.3405 49.4427 40.412 48.8972 40.6266 48.3969C40.8748 48.194 41.0846 48.0439 41.3676 47.855C41.4858 47.7282 41.5308 47.6403 41.5757 47.5524C44.0034 46.2042 45.863 44.2515 47.43 42.001C49.7548 38.6621 51.228 35.0214 51.7936 30.9441C52.4836 25.9706 51.3691 21.432 49.1494 17.0543C48.8344 16.4331 48.5873 16.2191 47.9285 16.7258C46.6963 17.6735 45.3884 18.5228 44.1081 19.4074C43.9634 19.5074 43.7939 19.5715 43.4812 19.7311C44.2984 15.0211 45.0871 10.4753 45.879 5.91098C50.5554 6.721 54.9686 7.48545 59.3818 8.24989C59.4048 8.3471 59.4278 8.44431 59.4507 8.54152C58.2069 9.42881 56.9564 10.3069 55.7252 11.2113C55.4854 11.3875 55.3207 11.6658 55.0544 12.0274C54.1778 13.0095 53.3682 13.8613 52.5585 14.7131C52.6285 14.7991 52.6985 14.8851 52.7684 14.9711C52.3651 14.9711 51.9618 14.9711 51.3502 14.9711C51.6196 15.5943 51.8225 16.0635 52.1439 16.8071C53.2069 15.8856 54.0785 15.0878 55.0018 14.3551C55.2832 14.1318 55.7071 14.088 56.0658 13.962C57.5104 16.3692 58.1521 19.0566 58.6375 21.7668C58.9392 23.4519 59.0955 25.1899 59.0743 26.9011C58.9861 34.0001 56.8 40.4314 52.2896 45.9144C47.2751 52.0102 40.7743 55.6857 32.9124 56.7411C26.9725 57.5385 21.3027 56.4808 15.9199 53.7462C16.8582 52.6409 16.6659 52.0688 15.0668 51.3626C14.9988 52.0116 14.9344 52.6267 14.8699 53.2419Z" fill="#E9EBF2"/>
<path d="M37.8099 49.9196C36.1532 50.419 34.4965 50.9183 32.7372 51.31C32.6366 46.048 32.6385 40.8938 32.695 35.7616C33.8123 35.6583 34.4997 34.8533 35.2173 34.2355C36.6238 33.0248 37.9007 31.6564 39.1547 30.2833C39.3504 30.069 39.1422 29.4859 39.1207 29.0733C38.7569 29.1031 38.3228 29.0171 38.0437 29.1865C37.4493 29.5472 36.9355 30.0405 36.2436 30.5959C36.2384 31.3098 35.4108 32.0518 34.0506 32.2661C33.972 32.8626 33.8924 33.4657 33.8017 34.1539C33.3285 34.0211 32.9941 33.9272 32.6502 33.7232C32.6325 26.0118 32.628 18.4107 32.6076 10.8096C32.6064 10.3544 32.4794 9.89957 32.4109 9.44457C32.9564 7.9523 33.8442 6.88552 35.4522 6.34314C37.2573 5.73425 40.7032 6.98315 41.1356 9.72827C41.1305 22.1598 41.1268 34.391 41.1335 46.6222C41.1338 47.0461 41.2384 47.4699 41.2944 47.8938C41.0846 48.0439 40.8748 48.194 40.5468 48.4191C39.5556 48.9692 38.6828 49.4444 37.8099 49.9196Z" fill="#50B4BF"/>
<path d="M29.3259 51.7931C26.7778 52.2785 24.3027 51.7543 21.8286 51.2418C21.4496 51.1633 21.0835 51.0225 20.6283 50.8736C20.5506 49.6578 20.556 48.4789 20.6464 47.1829C21.1409 47.1813 21.5505 47.2968 22.0682 47.4429C23.5457 45.9049 25.1221 44.2638 26.6986 42.6227C26.6613 42.4836 26.624 42.3444 26.5867 42.2053C25.9289 42.0843 25.2712 41.9633 24.817 41.8797C24.2346 42.7008 23.8152 43.402 23.287 44.0085C22.6508 44.739 21.9223 45.3892 21.2 46.1076C21.1216 46.0197 20.857 45.7229 20.5923 45.4261C20.5817 39.979 20.5711 34.5319 20.6193 28.9109C20.8337 28.563 20.982 28.3817 21.1463 28.2162C22.0503 27.3053 23.0267 26.4534 23.827 25.4594C24.0991 25.1215 23.9309 24.4291 23.9639 23.8986C23.6637 23.9855 23.1746 23.9893 23.0939 24.1727C22.5607 25.385 21.5752 25.2001 20.5933 25.0884C20.5745 22.9313 20.3635 20.7542 20.5851 18.6221C20.8681 15.8998 23.1594 14.7139 25.9302 15.2559C27.7467 15.6112 28.9671 16.8326 29.3149 18.9565C29.3184 30.0369 29.3222 40.915 29.3259 51.7931Z" fill="#50B4BF"/>
<path d="M16.8822 49.4052C13.6922 47.8747 10.9778 45.7393 8.72367 42.8148C8.70675 37.6456 8.70451 32.6619 8.70227 27.6782C8.85785 25.6859 10.4539 24.2433 12.4293 24.1232C14.735 23.9831 16.3816 24.8031 17.2447 27.2031C17.2437 34.0066 17.2529 40.6124 17.2242 47.2181C17.2211 47.9476 17.0015 48.6762 16.8822 49.4052Z" fill="#50B4BF"/>
<path d="M2.34451 26.2687C2.30424 26.2689 2.26398 26.2691 2.08512 26.2544C1.44872 26.0133 0.950912 25.7873 0.467861 25.5568C0.482626 25.5524 0.514123 25.5168 0.514123 25.5168C0.514123 25.5168 0.450876 25.5586 0.383805 25.5562C0.272027 25.552 0.227323 25.5502 0.182617 25.5483C0.548924 20.0325 2.46518 15.1148 5.8825 10.776C8.00286 8.08397 10.4485 5.65952 13.3674 3.9346C17.4283 1.53478 21.8237 -0.0324583 26.6855 0.000510275C30.2601 0.0247498 33.7586 0.303991 37.1056 1.6536C37.3536 1.75361 37.5905 1.88129 37.8038 2.13549C29.5489 -0.296218 21.6939 0.498974 14.5478 5.28555C7.39717 10.0751 3.4744 16.8916 2.95503 25.713C2.6989 25.9835 2.52171 26.1261 2.34451 26.2687ZM1.75999 24.914C1.64354 24.9798 1.52708 25.0457 1.41062 25.1116C1.48408 25.1859 1.55754 25.2603 1.631 25.3347C1.69718 25.2174 1.76337 25.1 1.75999 24.914Z" fill="#E9EBF2"/>
<path d="M20.5537 45.189C21.0043 44.7313 21.1216 46.0197 21.2001 46.1076C21.9223 45.3892 22.6509 44.739 23.287 44.0085C23.8152 43.402 24.2346 42.7008 24.817 41.8797C25.2712 41.9633 25.929 42.0843 26.5867 42.2053C26.624 42.3444 26.6614 42.4836 26.6987 42.6227C25.1222 44.2638 23.5457 45.9048 22.0682 47.4429C21.5505 47.2968 21.1513 47.6619 20.6719 47.554C20.5915 47.0783 20.5481 45.7749 20.5537 45.189Z" fill="#50B4BF"/>
<path d="M32.6404 35.7395C32.6385 40.8938 32.6366 46.0481 32.6406 51.3206C32.5677 51.4266 32.4888 51.4144 32.3792 51.3659C32.3586 42.7146 32.3722 34.0995 32.3774 25.4844C32.3806 20.2128 32.3708 14.9412 32.3888 9.5571C32.4794 9.89958 32.6064 10.3544 32.6076 10.8096C32.6279 18.4107 32.6325 26.0118 32.6436 33.8286C32.6446 34.6094 32.6425 35.1744 32.6404 35.7395Z" fill="#50B4BF"/>
<path d="M41.3677 47.855C41.2385 47.4699 41.1338 47.0461 41.1336 46.6222C41.1268 34.391 41.1305 22.1598 41.1448 9.81808C41.2265 10.1054 41.3562 10.5031 41.3565 10.901C41.3667 22.6923 41.3637 34.4836 41.3649 46.275C41.3649 46.6672 41.3867 47.0594 41.487 47.502C41.5308 47.6403 41.4858 47.7282 41.3677 47.855Z" fill="#50B4BF"/>
<path d="M20.5553 24.9957C21.593 25.0012 22.6185 25.2241 23.1734 23.7619C23.2574 23.5407 23.7663 23.5361 24.0786 23.4313C24.0443 24.0711 24.2193 24.9063 23.9362 25.3139C23.1034 26.5127 22.0874 27.5403 21.1467 28.639C20.9758 28.8385 20.8215 29.0573 20.6139 29.3438C20.5587 27.9886 20.549 26.5569 20.5553 24.9957Z" fill="#50B4BF"/>
<path d="M56.0463 13.8794C55.7071 14.088 55.2832 14.1318 55.0018 14.3551C54.0785 15.0878 53.2069 15.8856 52.1439 16.8071C51.8225 16.0635 51.6196 15.5943 51.3502 14.9711C51.9618 14.9711 52.3651 14.9711 52.7684 14.9711C52.6984 14.8851 52.6285 14.7991 52.5585 14.7131C53.3682 13.8613 54.1778 13.0095 55.0501 12.1079C55.4175 12.6376 55.7222 13.2172 56.0463 13.8794Z" fill="#E9EBF2"/>
<path d="M29.372 51.7996C29.3222 40.915 29.3185 30.0369 29.3246 19.0483C29.4032 19.2971 29.5316 19.6564 29.5319 20.0158C29.5418 30.5364 29.5389 41.0571 29.5245 51.6909C29.511 51.8042 29.418 51.8061 29.372 51.7996Z" fill="#D7E8C5"/>
<path d="M16.888 49.446C16.9499 48.6801 17.2211 47.9476 17.2242 47.2181C17.2529 40.6124 17.2437 34.0066 17.2506 27.2874C17.3317 27.5323 17.4735 27.8905 17.4742 28.2489C17.4885 35.3007 17.4681 42.407 17.4792 49.5642C17.3189 49.6242 17.0062 49.446 16.888 49.446Z" fill="#50B4BF"/>
<path d="M8.61193 27.7281C8.70448 32.6619 8.70671 37.6456 8.69152 42.741C8.54306 42.7343 8.41203 42.6158 8.28455 42.4301C8.35654 41.964 8.48252 41.5656 8.48461 41.1665C8.50797 36.7037 8.51222 32.2409 8.61193 27.7281Z" fill="#D7E8C5"/>
<path d="M14.6535 53.2463C14.734 52.6253 14.8192 51.9989 14.9091 51.338C17.0239 52.0571 17.2783 52.6398 15.9647 53.7029C15.6409 53.6827 15.3906 53.6075 14.9985 53.4589C14.7894 53.3336 14.7176 53.2857 14.6412 53.2418C14.6412 53.2418 14.6583 53.2408 14.6535 53.2463Z" fill="#E9EBF2"/>
<path d="M0.11764 25.6109C0.227311 25.5502 0.272015 25.552 0.384118 25.5568C0.451515 25.5598 0.453086 25.5612 0.453086 25.5612C0.9509 25.7873 1.44871 26.0133 2.02471 26.2546C1.99568 26.6561 1.88847 27.0424 1.82152 27.2836C1.17788 27.0767 0.671606 26.914 0.0785187 26.7514C0.0120312 26.3922 0.0323532 26.0328 0.11764 25.6109Z" fill="#E9EBF2"/>
<path d="M0 28.5048C0.0817269 29.0599 0.14947 29.719 0.209033 30.4781C0.129242 29.9216 0.0576283 29.2651 0 28.5048Z" fill="#E9EBF2"/>
<path d="M2.42816 26.2685C2.52166 26.1261 2.69885 25.9835 2.94328 25.8204C3.01879 25.9036 3.02707 26.0071 3.02476 26.1881C2.84673 26.2665 2.6793 26.2674 2.42816 26.2685Z" fill="#E9EBF2"/>
<path d="M0.00628348 27.2782C0.0157022 27.2781 0.0170969 27.3312 0.0153574 27.4111C0.0147513 27.4377 0.000787532 27.3315 0.00628348 27.2782Z" fill="#E9EBF2"/>
<path d="M14.8891 53.2832C14.922 53.2752 14.9763 53.3222 15.0648 53.4116C15.0221 53.4399 14.9592 53.4013 14.8891 53.2832Z" fill="#E9EBF2"/>
<path d="M37.8313 49.9974C38.6828 49.4444 39.5557 48.9692 40.5084 48.4719C40.412 48.8972 40.3405 49.4427 40.0348 49.7689C39.5785 50.2557 38.9572 50.5879 38.2887 51.0707C38.1446 50.7417 37.9986 50.4085 37.8313 49.9974Z" fill="#E9EBF2"/>
<path d="M32.6951 35.7616C32.6426 35.1744 32.6864 34.0347 32.6951 33.3642C33.0359 33.3526 33.3285 34.0211 33.8018 34.1539C33.8925 33.4657 33.972 32.8626 34.0506 32.2661C35.4108 32.0518 36.2384 31.3098 36.2436 30.5959C36.9355 30.0405 37.4494 29.5472 38.0437 29.1865C38.3228 29.0171 38.7569 29.1031 39.1208 29.0733C39.1422 29.4859 39.3504 30.069 39.1548 30.2833C37.9008 31.6564 36.6238 33.0248 35.2174 34.2355C34.4998 34.8533 33.8124 35.6584 32.6951 35.7616Z" fill="#50B4BF"/>
<path d="M1.79474 24.9483C1.76333 25.1 1.69714 25.2174 1.63096 25.3347C1.5575 25.2603 1.48404 25.1859 1.41058 25.1116C1.52704 25.0457 1.6435 24.9798 1.79474 24.9483Z" fill="#E9EBF2"/>
<path d="M0.451234 25.5592C0.450909 25.5586 0.514156 25.5168 0.514156 25.5168C0.514156 25.5168 0.48266 25.5524 0.467895 25.5568C0.453132 25.5612 0.451561 25.5599 0.451234 25.5592Z" fill="#E9EBF2"/>
</svg>
